<svg id="Слой_1" data-name="Слой 1" xmlns="http://www.w3.org/2000/svg" viewBox="0 0 827 684.96"><defs><style>.cls-1,.cls-2{fill:#fff;}.cls-2,.cls-3{font-size:182.87px;font-family:Montserrat-ExtraBold, Montserrat;font-weight:800;}.cls-4{letter-spacing:-0.01em;}.cls-5{fill:none;stroke:#000;stroke-miterlimit:10;stroke-width:62px;}</style></defs><rect y="388.96" width="827" height="296" rx="74.53"/><path class="cls-1" d="M809.26,859c50.43-30.32,122.2-81.18,158.22-142.42,20.08-34.14,39.53-61.38,69.15-83.29,32.25-23.86,74-39.21,131.23-48.29h108.61A63.6,63.6,0,0,1,1340,648.53V795.47A63.6,63.6,0,0,1,1276.47,859Z" transform="translate(-524 -185.04)"/><path d="M1276.47,596A52.58,52.58,0,0,1,1329,648.53V795.47A52.58,52.58,0,0,1,1276.47,848H847.06c46.53-31.25,100-75,129.9-125.85,19.4-33,38.09-59.21,66.22-80,30.6-22.65,70.54-37.33,125.55-46.13h107.74m0-22H1167c-126.42,19.85-169,69-209,137S830.15,836.85,767.44,870h509A74.53,74.53,0,0,0,1351,795.47V648.53A74.53,74.53,0,0,0,1276.47,574Z" transform="translate(-524 -185.04)"/><text class="cls-2" transform="translate(74.84 611.3)">Wi</text><text class="cls-3" transform="translate(512.29 611.76)"><tspan class="cls-4">F</tspan><tspan x="115.57" y="0">i</tspan></text><circle cx="414.19" cy="400.07" r="45.01"/><path class="cls-1" d="M938.19,546.1a39,39,0,1,1-39,39,39.05,39.05,0,0,1,39-39m0-12a51,51,0,1,0,51,51,51,51,0,0,0-51-51Z" transform="translate(-524 -185.04)"/><path class="cls-5" d="M812.16,504.1S865.6,444,945.69,444.74,1085.22,513,1085.22,513" transform="translate(-524 -185.04)"/><path class="cls-5" d="M721.43,432.8s106.44-109.48,225-109.48,222.81,108.09,222.81,108.09" transform="translate(-524 -185.04)"/><path class="cls-5" d="M638.25,370.44S765.65,216,938.63,216c182.59,0,298.31,151.33,298.31,151.33" transform="translate(-524 -185.04)"/></svg>